<svg width="953" height="144" viewBox="0 0 953 144" fill="none" xmlns="http://www.w3.org/2000/svg">
<path d="M4.68829 115.811C-5.3157 109.563 15.5052 57.2256 19.8624 58.5318C23.575 59.6447 26.5649 76.7576 31.7411 75.6083C37.8019 74.2625 44.8631 69.8452 50.6704 67.5678C63.887 62.3847 76.6894 55.7078 90.5216 52.2525C101.979 49.3905 98.2457 53.7998 101.251 61.748C107.161 77.3817 133.816 62.7783 142.098 57.1534C159.058 45.6351 173.695 29.9735 187.161 14.6535C189.708 11.7553 199.99 -6.4698 198.273 6.76612C196.175 22.9404 194.846 38.7468 195.131 55.0858C195.141 55.6419 194.337 77.5186 200.112 70.6308C213.624 54.5164 214.005 30.3837 229.004 14.7301C243.263 -0.150965 253.353 6.5084 262.188 22.5409C269.672 36.121 274.69 50.7483 279.508 65.4236C282.748 75.2926 287.189 89.2661 290.237 99.1172C292.654 106.926 294.439 117.215 298.514 124.617C306.486 139.1 335.349 95.8444 338.825 91.5362C341.763 87.8944 369.539 51.2159 370.246 51.6399C371.31 52.2776 372.208 63.3271 372.622 64.811C375.568 75.3737 378.988 88.5332 386.8 96.6668C400.184 110.604 417.959 104.541 432.399 97.1262C448.298 88.9621 461.869 77.662 476.311 67.2615C490.91 56.7488 506.013 46.7935 520.914 36.7075C530.95 29.9142 528.884 36.4415 528.884 45.8201C528.884 56.3307 530.238 63.4605 542.296 61.1353C549.728 59.7021 556.221 56.2213 563.141 53.3246C571.426 49.8565 579.813 48.4936 588.661 47.1984C597.39 45.9206 602.746 45.1793 608.663 52.4056C614.172 59.1333 616.061 67.8274 619.009 75.838C619.707 77.7352 621.548 85.8503 623.761 87.3245C624.293 87.6793 624.457 86.2392 624.68 85.6398C625.933 82.279 627.004 79.0047 629.049 75.9912C639.403 60.7311 659.861 45.4158 678.02 40.6129C689.43 37.5949 692.871 59.8036 696.719 66.6488C700.417 73.2285 706.582 82.5898 714.192 85.1803C724.563 88.7104 734.713 81.843 743.544 77.3695C758.312 69.8887 772.244 61.6188 786.078 52.5588C790.353 49.7587 809.08 34.56 815.2 37.0904C816.505 37.63 816.089 45.9814 816.119 46.4327C816.676 54.9008 816.18 65.6773 820.717 73.2344C825.117 80.562 829.971 63.8353 833.133 60.6759C838.027 55.7856 856.313 66.867 860.109 71.0903C864.778 76.2858 866.158 99.0964 874.516 99.6533C878.828 99.9405 890.366 84.3926 894.289 81.5047C895.367 80.7108 899.339 76.6583 901.033 77.9056C911.257 85.4335 918.651 101.487 925.71 111.676C932.851 121.982 939.422 136.215 951 142" stroke="black" stroke-width="3" stroke-linecap="round"/>
</svg>
