<svg width="577" height="83" viewBox="0 0 577 83" fill="none" xmlns="http://www.w3.org/2000/svg">
<path d="M442.865 65.6451C442.941 62.0687 442.622 57.6319 444.486 54.377C447.789 48.608 456.093 45.4799 461.719 42.667C470.809 38.1223 481.078 35.0833 491.326 35.1549C511.276 35.2944 530.359 55.17 530.359 74.9247" stroke="black" stroke-width="3" stroke-linecap="round"/>
<path d="M543.615 52.3885C553.93 47.1722 564.217 42.3577 574.768 37.8063" stroke="black" stroke-width="3" stroke-linecap="round"/>
<path d="M525.719 45.155C530.379 35.0576 539.246 28.5213 548.255 22.6188" stroke="black" stroke-width="3" stroke-linecap="round"/>
<path d="M493.903 27.9214C492.011 19.3155 490.247 10.7162 488.601 2.07104" stroke="black" stroke-width="3" stroke-linecap="round"/>
<path d="M454.133 35.2125C447.141 27.4323 438.433 21.7837 430.272 15.3276" stroke="black" stroke-width="3" stroke-linecap="round"/>
<path d="M428.946 63.0513C418.751 59.7626 408.5 57.7487 397.793 57.7487" stroke="black" stroke-width="3" stroke-linecap="round"/>
<path d="M253.218 61.1648C255.866 64.3111 259.024 67.2809 261.325 70.6995C262.446 72.3651 263.178 74.0891 264.411 75.6741" stroke="black" stroke-width="3" stroke-linecap="round"/>
<path d="M251.974 61.5793C249.548 61.5793 247.493 64.3023 246.125 66.0473C243.55 69.3297 240.864 72.9397 239.538 76.9177" stroke="black" stroke-width="3" stroke-linecap="round"/>
<path d="M251.145 60.3357C251.145 55.1198 250.29 48.8346 251.56 43.7537" stroke="black" stroke-width="3" stroke-linecap="round"/>
<path d="M251.538 42.8955C253.21 42.9454 255.052 43.2299 256.688 42.7997C258.155 42.4142 258.84 40.9189 258.874 39.515C258.927 37.317 258.345 34.6655 256.835 32.9962C255.43 31.4441 253.023 31.1131 251.076 31.6721C247.855 32.5974 246.647 36.817 247.842 39.6727C248.629 41.5501 250.241 43.8102 252.451 44.0111" stroke="black" stroke-width="3" stroke-linecap="round"/>
<path d="M255.798 49.0819C257.672 48.1888 259.474 47.1698 261.274 46.1409" stroke="black" stroke-width="3" stroke-linecap="round"/>
<path d="M248.496 50.7046C246.904 49.0063 244.763 47.7734 242.963 46.3099C241.842 45.3988 240.82 44.3814 239.673 43.504" stroke="black" stroke-width="3" stroke-linecap="round"/>
<path d="M251.133 35.9993C251.157 35.8055 251.614 35.8979 251.741 35.8979" stroke="black" stroke-width="3" stroke-linecap="round"/>
<path d="M255.189 35.7964C255.189 36.1374 256.015 36.0835 255.088 35.9992" stroke="black" stroke-width="3" stroke-linecap="round"/>
<path d="M251.64 39.4474C252.492 39.4474 253.294 39.9028 254.17 39.9488C254.536 39.9681 255.172 40.0672 255.494 39.8531" stroke="black" stroke-width="3" stroke-linecap="round"/>
<path d="M3.59523 74.1973C3.59523 71.0179 3.36359 67.8691 3.36359 64.6999C3.36359 61.617 3.93492 58.524 4.05852 55.4342" stroke="white" stroke-width="3" stroke-linecap="round"/>
<path d="M2.43706 56.824C2.43706 60.6231 2.27326 64.457 2.43706 68.2517C2.60464 72.1341 4.05856 75.8205 4.05856 79.7567" stroke="white" stroke-width="3" stroke-linecap="round"/>
<path d="M2.43706 57.0557C2.43706 60.8551 2.48964 64.6595 2.38558 68.4577C2.28005 72.3094 1.74213 76.1354 1.74213 79.9884" stroke="white" stroke-width="3" stroke-linecap="round"/>
<path d="M290.104 60.7766C289.782 61.3789 289.876 62.1813 289.872 62.8357C289.861 64.4718 289.875 66.0936 289.743 67.7259C289.489 70.8805 289.177 74.0558 289.177 77.2233" stroke="black" stroke-width="3" stroke-linecap="round"/>
<path d="M279.68 59.6184C285.869 59.6184 292.033 59.6451 298.211 60.0817C300.925 60.2734 303.642 60.4655 306.344 60.7766C307.142 60.8684 307.709 61.0944 307.606 60.0817C307.313 57.2091 307.014 54.4502 307.014 51.5623C307.014 49.7478 307.09 47.9432 307.194 46.1316C307.199 46.0355 307.414 44.7306 307.142 44.613C306.099 44.1608 304.07 44.41 303.024 44.3814C293.753 44.1277 284.488 44.0983 275.214 44.0983C274.4 44.0983 273.032 43.8533 272.228 44.1369C271.877 44.2607 272.035 45.29 272.035 45.5267C272.035 47.0208 272.19 48.5028 272.28 49.9923C272.438 52.5973 272.499 55.1638 272.499 57.791C272.499 58.0487 272.276 59.511 272.679 59.6184C273.673 59.8835 274.67 59.878 275.677 59.7213C276.626 59.5738 280.68 58.6079 281.301 59.85" stroke="black" stroke-width="3" stroke-linecap="round"/>
<path d="M281.764 70.5057C284.595 70.5057 287.376 69.9641 290.232 70.0424C292.845 70.114 295.896 70.5639 298.443 71.2006" stroke="black" stroke-width="3" stroke-linecap="round"/>
<path d="M253.218 61.1648C255.866 64.3111 259.024 67.2809 261.325 70.6995C262.446 72.3651 263.178 74.0891 264.411 75.6741" stroke="black" stroke-width="3" stroke-linecap="round"/>
<path d="M251.974 61.5793C249.548 61.5793 247.493 64.3023 246.125 66.0473C243.55 69.3297 240.864 72.9397 239.538 76.9177" stroke="black" stroke-width="3" stroke-linecap="round"/>
<path d="M251.145 60.3357C251.145 55.1198 250.29 48.8346 251.56 43.7537" stroke="black" stroke-width="3" stroke-linecap="round"/>
<path d="M251.538 42.8955C253.21 42.9454 255.052 43.2299 256.688 42.7997C258.155 42.4142 258.84 40.9189 258.874 39.515C258.927 37.317 258.345 34.6655 256.835 32.9962C255.43 31.4441 253.023 31.1131 251.076 31.6721C247.855 32.5974 246.647 36.817 247.842 39.6727C248.629 41.5501 250.241 43.8102 252.451 44.0111" stroke="black" stroke-width="3" stroke-linecap="round"/>
<path d="M255.798 49.0819C257.672 48.1888 259.474 47.1698 261.274 46.1409" stroke="black" stroke-width="3" stroke-linecap="round"/>
<path d="M248.496 50.7046C246.904 49.0063 244.763 47.7734 242.963 46.3099C241.842 45.3988 240.82 44.3814 239.673 43.504" stroke="black" stroke-width="3" stroke-linecap="round"/>
<path d="M251.133 35.9993C251.157 35.8055 251.614 35.8979 251.741 35.8979" stroke="black" stroke-width="3" stroke-linecap="round"/>
<path d="M255.189 35.7964C255.189 36.1374 256.015 36.0835 255.088 35.9992" stroke="black" stroke-width="3" stroke-linecap="round"/>
<path d="M251.64 39.4474C252.492 39.4474 253.294 39.9028 254.17 39.9488C254.536 39.9681 255.172 40.0672 255.494 39.8531" stroke="black" stroke-width="3" stroke-linecap="round"/>
<path d="M290.104 60.7766C289.782 61.3789 289.876 62.1813 289.872 62.8357C289.861 64.4718 289.875 66.0936 289.743 67.7259C289.489 70.8805 289.177 74.0558 289.177 77.2233" stroke="black" stroke-width="3" stroke-linecap="round"/>
<path d="M279.68 59.6184C285.869 59.6184 292.033 59.6451 298.211 60.0817C300.925 60.2734 303.642 60.4655 306.344 60.7766C307.142 60.8684 307.709 61.0944 307.606 60.0817C307.313 57.2091 307.014 54.4502 307.014 51.5623C307.014 49.7478 307.09 47.9432 307.194 46.1316C307.199 46.0355 307.414 44.7306 307.142 44.613C306.099 44.1608 304.07 44.41 303.024 44.3814C293.753 44.1277 284.488 44.0983 275.214 44.0983C274.4 44.0983 273.032 43.8533 272.228 44.1369C271.877 44.2607 272.035 45.29 272.035 45.5267C272.035 47.0208 272.19 48.5028 272.28 49.9923C272.438 52.5973 272.499 55.1638 272.499 57.791C272.499 58.0487 272.276 59.511 272.679 59.6184C273.673 59.8835 274.67 59.878 275.677 59.7213C276.626 59.5738 280.68 58.6079 281.301 59.85" stroke="black" stroke-width="3" stroke-linecap="round"/>
<path d="M281.764 80.5057C284.595 80.5057 287.376 79.9641 290.232 80.0424C292.845 80.114 295.896 80.5639 298.443 81.2006" stroke="black" stroke-width="3" stroke-linecap="round"/>
</svg>
