<svg width="970" height="671" viewBox="0 0 970 671" fill="none" xmlns="http://www.w3.org/2000/svg">
<path d="M289.04 148.139C290.2 135.382 295.983 121.884 298.723 109.407C303.021 89.8422 308.286 69.2045 309.79 49.1577C310.158 44.2481 313.341 52.9735 313.939 54.076C318.797 63.0247 327.513 50.9742 330.155 47.3133C334.139 41.7914 351.967 23.5829 346.985 15.1135C345.038 11.8042 336.963 14.9751 333.92 13.9607C333.152 13.7046 333.738 12.2143 333.152 11.6553C330.034 8.68251 326.202 6.62542 321.932 5.96842C318.002 5.36376 308.56 4.18021 305.025 6.42951C303.584 7.34634 301.378 11.1302 303.642 12.4237C307.812 14.8068 307.07 7.21032 303.257 5.04622C290.501 -2.19395 276.724 3.72531 279.665 20.1087C280.005 22.0047 283.563 28.0262 281.202 27.1788C278.939 26.3667 269.828 22.143 269.828 27.3325C269.828 35.4334 278.308 36.9797 284.66 38.0914C288.466 38.7574 299.943 37.1488 301.49 40.2432" stroke="black" stroke-width="3" stroke-linecap="round"/>
<path d="M16.6883 157.811C6.6843 151.563 27.5052 99.2256 31.8624 100.532C35.575 101.645 38.5649 118.758 43.7411 117.608C49.8019 116.263 56.8631 111.845 62.6704 109.568C75.887 104.385 88.6894 97.7078 102.522 94.2525C113.979 91.3905 110.246 95.7998 113.251 103.748C119.161 119.382 145.816 104.778 154.098 99.1534C171.058 87.6351 185.695 71.9735 199.161 56.6535C201.708 53.7553 211.99 35.5302 210.273 48.7661C208.175 64.9404 206.846 80.7468 207.131 97.0858C207.141 97.6419 206.337 119.519 212.112 112.631C225.624 96.5164 226.005 72.3837 241.004 56.7301C255.263 41.849 265.353 48.5084 274.188 64.5409C281.672 78.121 286.69 92.7483 291.508 107.424C294.748 117.293 299.189 131.266 302.237 141.117C304.654 148.926 306.439 159.215 310.514 166.617C318.486 181.1 347.349 137.844 350.825 133.536C353.763 129.894 381.539 93.2159 382.246 93.6399C383.31 94.2776 384.208 105.327 384.622 106.811C387.568 117.374 390.988 130.533 398.8 138.667C412.184 152.604 429.959 146.541 444.399 139.126C460.298 130.962 473.869 119.662 488.311 109.261C502.91 98.7488 518.013 88.7935 532.914 78.7075C542.95 71.9142 540.884 78.4415 540.884 87.8201C540.884 98.3307 542.238 105.461 554.296 103.135C561.728 101.702 568.221 98.2213 575.141 95.3246C583.426 91.8565 591.813 90.4936 600.661 89.1984C609.39 87.9206 614.746 87.1793 620.663 94.4056C626.172 101.133 628.061 109.827 631.009 117.838C631.707 119.735 633.548 127.85 635.761 129.324C636.293 129.679 636.457 128.239 636.68 127.64C637.933 124.279 639.004 121.005 641.049 117.991C651.403 102.731 671.861 87.4158 690.02 82.6129C701.43 79.5949 704.871 101.804 708.719 108.649C712.417 115.228 718.582 124.59 726.192 127.18C736.563 130.71 746.713 123.843 755.544 119.37C770.312 111.889 784.244 103.619 798.078 94.5588C802.353 91.7587 821.08 76.56 827.2 79.0904C828.505 79.63 828.089 87.9814 828.119 88.4327C828.676 96.9008 828.18 107.677 832.717 115.234C837.117 122.562 841.971 105.835 845.133 102.676C850.027 97.7856 868.313 108.867 872.109 113.09C876.778 118.286 878.158 141.096 886.516 141.653C890.828 141.94 902.366 126.393 906.289 123.505C907.367 122.711 911.339 118.658 913.033 119.906C923.257 127.433 930.651 143.487 937.71 153.676C944.851 163.982 951.422 178.215 963 184" stroke="black" stroke-width="3" stroke-linecap="round"/>
<path d="M728.925 128.773C721.51 113.53 720.552 96.04 722.316 79.2825C722.867 74.0433 722.643 70.6754 728.233 70.6754C734.931 70.6754 735.779 66.9093 737.225 60.8387C741.342 43.5472 730.819 48.6547 718.243 47.0827C716.401 46.8524 725.583 23.812 707.407 31.9434C703.596 33.6483 702.772 35.5026 699.184 32.7119C697.103 31.0933 690.896 29.2757 689.117 31.9434C685.941 36.707 691.35 44.2686 693.574 48.3123C696.659 53.9204 695.272 49.4737 690.27 53.538C678.402 63.1803 696.383 74.5296 706.101 71.2902C713.174 68.9325 717.595 64.3506 720.625 73.442" stroke="black" stroke-width="3" stroke-linecap="round"/>
<g filter="url(#filter0_d_124_47)">
<g clip-path="url(#clip0_124_47)">
<g clip-path="url(#clip1_124_47)">
<rect width="962" height="64" transform="translate(4 137.932)" fill="#EEF1F4"/>
<circle cx="36" cy="169.932" r="8" fill="#FD4E4E"/>
<circle cx="60" cy="169.932" r="8" fill="#F7BE2C"/>
<circle cx="84" cy="169.932" r="8" fill="#1FDC00"/>
<line x1="4" y1="200.932" x2="966" y2="200.932" stroke="#545F71" stroke-width="2"/>
<g clip-path="url(#clip2_124_47)">
<rect x="252" y="151.932" width="466" height="36" rx="10" fill="white"/>
<path d="M404.376 163.841V176.932H402.465V163.841H404.376ZM410.819 177.13C409.851 177.13 409.018 176.923 408.319 176.51C407.625 176.092 407.088 175.506 406.708 174.752C406.333 173.994 406.146 173.105 406.146 172.087C406.146 171.081 406.333 170.195 406.708 169.428C407.088 168.661 407.616 168.062 408.294 167.631C408.975 167.201 409.772 166.986 410.684 166.986C411.238 166.986 411.775 167.077 412.295 167.261C412.815 167.444 413.282 167.732 413.695 168.124C414.108 168.516 414.434 169.025 414.673 169.651C414.912 170.274 415.031 171.03 415.031 171.921V172.598H407.226V171.166H413.158C413.158 170.663 413.056 170.218 412.851 169.83C412.647 169.438 412.359 169.129 411.988 168.903C411.622 168.678 411.191 168.565 410.697 168.565C410.16 168.565 409.691 168.697 409.291 168.961C408.895 169.221 408.588 169.562 408.37 169.984C408.157 170.401 408.051 170.855 408.051 171.345V172.464C408.051 173.12 408.166 173.678 408.396 174.139C408.63 174.599 408.956 174.95 409.374 175.193C409.792 175.432 410.279 175.551 410.838 175.551C411.2 175.551 411.53 175.5 411.828 175.398C412.127 175.291 412.385 175.134 412.602 174.925C412.819 174.716 412.985 174.458 413.1 174.151L414.909 174.477C414.765 175.01 414.505 175.477 414.13 175.877C413.759 176.274 413.292 176.582 412.73 176.804C412.172 177.021 411.534 177.13 410.819 177.13ZM419.649 177.149C419.027 177.149 418.464 177.034 417.961 176.804C417.458 176.57 417.06 176.231 416.766 175.788C416.476 175.345 416.331 174.801 416.331 174.158C416.331 173.604 416.438 173.148 416.651 172.79C416.864 172.432 417.152 172.149 417.514 171.94C417.876 171.731 418.281 171.573 418.728 171.467C419.176 171.36 419.632 171.279 420.096 171.224C420.684 171.156 421.161 171.1 421.528 171.058C421.894 171.011 422.161 170.936 422.327 170.834C422.493 170.732 422.576 170.565 422.576 170.335V170.291C422.576 169.732 422.419 169.3 422.103 168.993C421.792 168.686 421.328 168.533 420.71 168.533C420.066 168.533 419.559 168.675 419.188 168.961C418.822 169.242 418.568 169.555 418.428 169.901L416.632 169.492C416.845 168.895 417.156 168.413 417.565 168.047C417.978 167.676 418.453 167.408 418.99 167.242C419.527 167.071 420.092 166.986 420.684 166.986C421.076 166.986 421.492 167.033 421.931 167.126C422.374 167.216 422.787 167.382 423.171 167.625C423.558 167.868 423.876 168.215 424.123 168.667C424.37 169.114 424.494 169.696 424.494 170.412V176.932H422.627V175.59H422.551C422.427 175.837 422.242 176.08 421.995 176.318C421.747 176.557 421.43 176.755 421.042 176.913C420.654 177.07 420.19 177.149 419.649 177.149ZM420.064 175.615C420.593 175.615 421.044 175.511 421.419 175.302C421.799 175.093 422.086 174.82 422.282 174.484C422.482 174.143 422.583 173.778 422.583 173.391V172.125C422.514 172.193 422.382 172.257 422.186 172.317C421.995 172.372 421.775 172.421 421.528 172.464C421.281 172.502 421.04 172.538 420.806 172.573C420.571 172.602 420.375 172.628 420.218 172.649C419.847 172.696 419.508 172.775 419.201 172.886C418.899 172.997 418.656 173.156 418.473 173.365C418.294 173.57 418.204 173.842 418.204 174.183C418.204 174.656 418.379 175.014 418.728 175.257C419.078 175.496 419.523 175.615 420.064 175.615ZM426.679 176.932V167.114H428.527V168.673H428.629C428.808 168.145 429.123 167.729 429.575 167.427C430.031 167.12 430.547 166.967 431.122 166.967C431.241 166.967 431.382 166.971 431.544 166.979C431.71 166.988 431.84 166.999 431.934 167.011V168.84C431.857 168.818 431.721 168.795 431.525 168.769C431.329 168.739 431.133 168.724 430.937 168.724C430.485 168.724 430.082 168.82 429.728 169.012C429.379 169.2 429.102 169.462 428.898 169.798C428.693 170.131 428.591 170.51 428.591 170.936V176.932H426.679ZM435.139 171.102V176.932H433.228V167.114H435.062V168.712H435.184C435.41 168.192 435.763 167.774 436.245 167.459C436.731 167.144 437.342 166.986 438.079 166.986C438.748 166.986 439.334 167.126 439.837 167.408C440.34 167.685 440.73 168.098 441.007 168.648C441.284 169.198 441.422 169.877 441.422 170.687V176.932H439.511V170.917C439.511 170.205 439.326 169.649 438.955 169.249C438.584 168.844 438.075 168.641 437.427 168.641C436.984 168.641 436.59 168.737 436.245 168.929C435.904 169.121 435.633 169.402 435.433 169.773C435.237 170.139 435.139 170.582 435.139 171.102ZM444.885 177.053C444.535 177.053 444.235 176.93 443.983 176.683C443.732 176.431 443.606 176.129 443.606 175.775C443.606 175.425 443.732 175.127 443.983 174.88C444.235 174.629 444.535 174.503 444.885 174.503C445.234 174.503 445.535 174.629 445.786 174.88C446.037 175.127 446.163 175.425 446.163 175.775C446.163 176.009 446.103 176.224 445.984 176.421C445.869 176.612 445.716 176.766 445.524 176.881C445.332 176.996 445.119 177.053 444.885 177.053ZM448.363 176.932V167.114H450.274V176.932H448.363ZM449.328 165.599C448.996 165.599 448.71 165.488 448.472 165.266C448.237 165.041 448.12 164.772 448.12 164.461C448.12 164.146 448.237 163.877 448.472 163.656C448.71 163.43 448.996 163.317 449.328 163.317C449.661 163.317 449.944 163.43 450.178 163.656C450.417 163.877 450.536 164.146 450.536 164.461C450.536 164.772 450.417 165.041 450.178 165.266C449.944 165.488 449.661 165.599 449.328 165.599ZM454.397 171.102V176.932H452.486V167.114H454.32V168.712H454.442C454.667 168.192 455.021 167.774 455.503 167.459C455.988 167.144 456.6 166.986 457.337 166.986C458.006 166.986 458.592 167.126 459.095 167.408C459.598 167.685 459.988 168.098 460.265 168.648C460.542 169.198 460.68 169.877 460.68 170.687V176.932H458.769V170.917C458.769 170.205 458.584 169.649 458.213 169.249C457.842 168.844 457.333 168.641 456.685 168.641C456.242 168.641 455.848 168.737 455.503 168.929C455.162 169.121 454.891 169.402 454.691 169.773C454.495 170.139 454.397 170.582 454.397 171.102ZM470.241 169.511L468.508 169.818C468.436 169.596 468.321 169.385 468.163 169.185C468.01 168.984 467.801 168.82 467.537 168.693C467.273 168.565 466.942 168.501 466.546 168.501C466.005 168.501 465.553 168.622 465.191 168.865C464.829 169.104 464.648 169.413 464.648 169.792C464.648 170.12 464.769 170.384 465.012 170.585C465.255 170.785 465.647 170.949 466.188 171.077L467.748 171.435C468.651 171.644 469.324 171.965 469.768 172.4C470.211 172.835 470.432 173.399 470.432 174.094C470.432 174.682 470.262 175.206 469.921 175.666C469.584 176.122 469.114 176.48 468.508 176.74C467.908 177 467.211 177.13 466.418 177.13C465.319 177.13 464.422 176.896 463.727 176.427C463.033 175.954 462.606 175.283 462.449 174.413L464.296 174.132C464.411 174.614 464.648 174.978 465.006 175.225C465.364 175.468 465.83 175.59 466.405 175.59C467.032 175.59 467.533 175.46 467.908 175.2C468.283 174.935 468.47 174.614 468.47 174.234C468.47 173.928 468.355 173.67 468.125 173.461C467.899 173.252 467.552 173.095 467.083 172.988L465.421 172.624C464.505 172.415 463.827 172.082 463.388 171.626C462.954 171.171 462.736 170.593 462.736 169.894C462.736 169.315 462.898 168.808 463.222 168.373C463.546 167.938 463.993 167.599 464.564 167.357C465.136 167.109 465.79 166.986 466.527 166.986C467.588 166.986 468.423 167.216 469.033 167.676C469.642 168.132 470.045 168.744 470.241 169.511ZM476.309 177.13C475.389 177.13 474.586 176.919 473.9 176.497C473.214 176.075 472.681 175.485 472.302 174.727C471.922 173.968 471.733 173.082 471.733 172.068C471.733 171.049 471.922 170.158 472.302 169.396C472.681 168.633 473.214 168.041 473.9 167.619C474.586 167.197 475.389 166.986 476.309 166.986C477.23 166.986 478.033 167.197 478.719 167.619C479.405 168.041 479.938 168.633 480.317 169.396C480.697 170.158 480.886 171.049 480.886 172.068C480.886 173.082 480.697 173.968 480.317 174.727C479.938 175.485 479.405 176.075 478.719 176.497C478.033 176.919 477.23 177.13 476.309 177.13ZM476.316 175.526C476.912 175.526 477.407 175.368 477.799 175.053C478.191 174.737 478.481 174.318 478.668 173.793C478.86 173.269 478.956 172.692 478.956 172.061C478.956 171.435 478.86 170.859 478.668 170.335C478.481 169.807 478.191 169.383 477.799 169.063C477.407 168.744 476.912 168.584 476.316 168.584C475.715 168.584 475.216 168.744 474.82 169.063C474.428 169.383 474.136 169.807 473.944 170.335C473.757 170.859 473.663 171.435 473.663 172.061C473.663 172.692 473.757 173.269 473.944 173.793C474.136 174.318 474.428 174.737 474.82 175.053C475.216 175.368 475.715 175.526 476.316 175.526ZM484.571 163.841V176.932H482.659V163.841H484.571ZM486.782 176.932V167.114H488.693V176.932H486.782ZM487.747 165.599C487.415 165.599 487.129 165.488 486.891 165.266C486.656 165.041 486.539 164.772 486.539 164.461C486.539 164.146 486.656 163.877 486.891 163.656C487.129 163.43 487.415 163.317 487.747 163.317C488.079 163.317 488.363 163.43 488.597 163.656C488.836 163.877 488.955 164.146 488.955 164.461C488.955 164.772 488.836 165.041 488.597 165.266C488.363 165.488 488.079 165.599 487.747 165.599ZM495.487 167.114V168.648H490.125V167.114H495.487ZM491.563 164.761H493.474V174.049C493.474 174.42 493.529 174.699 493.64 174.886C493.751 175.07 493.894 175.195 494.068 175.264C494.247 175.327 494.441 175.359 494.65 175.359C494.803 175.359 494.938 175.349 495.053 175.327C495.168 175.306 495.257 175.289 495.321 175.276L495.666 176.855C495.556 176.898 495.398 176.94 495.193 176.983C494.989 177.03 494.733 177.055 494.426 177.06C493.924 177.068 493.455 176.979 493.02 176.791C492.585 176.604 492.234 176.314 491.965 175.922C491.697 175.53 491.563 175.038 491.563 174.445V164.761ZM503.461 172.86V167.114H505.379V176.932H503.499V175.232H503.397C503.171 175.756 502.809 176.193 502.31 176.542C501.816 176.887 501.2 177.06 500.463 177.06C499.832 177.06 499.274 176.921 498.788 176.644C498.307 176.363 497.928 175.948 497.651 175.398C497.378 174.848 497.242 174.168 497.242 173.359V167.114H499.153V173.129C499.153 173.798 499.338 174.33 499.709 174.727C500.08 175.123 500.561 175.321 501.154 175.321C501.511 175.321 501.867 175.232 502.221 175.053C502.579 174.874 502.875 174.603 503.109 174.241C503.348 173.879 503.465 173.418 503.461 172.86ZM507.587 176.932V167.114H509.421V168.712H509.543C509.747 168.171 510.082 167.749 510.546 167.446C511.011 167.139 511.567 166.986 512.215 166.986C512.871 166.986 513.42 167.139 513.864 167.446C514.311 167.753 514.641 168.175 514.854 168.712H514.957C515.191 168.188 515.564 167.77 516.075 167.459C516.587 167.144 517.196 166.986 517.903 166.986C518.794 166.986 519.521 167.265 520.083 167.823C520.65 168.381 520.933 169.223 520.933 170.348V176.932H519.022V170.527C519.022 169.862 518.841 169.381 518.479 169.082C518.117 168.784 517.684 168.635 517.181 168.635C516.559 168.635 516.075 168.827 515.73 169.21C515.385 169.59 515.212 170.077 515.212 170.674V176.932H513.308V170.406C513.308 169.873 513.141 169.445 512.809 169.121C512.477 168.797 512.044 168.635 511.511 168.635C511.149 168.635 510.815 168.731 510.508 168.923C510.205 169.11 509.96 169.372 509.773 169.709C509.59 170.046 509.498 170.435 509.498 170.879V176.932H507.587ZM524.394 177.053C524.045 177.053 523.744 176.93 523.493 176.683C523.241 176.431 523.116 176.129 523.116 175.775C523.116 175.425 523.241 175.127 523.493 174.88C523.744 174.629 524.045 174.503 524.394 174.503C524.744 174.503 525.044 174.629 525.295 174.88C525.547 175.127 525.673 175.425 525.673 175.775C525.673 176.009 525.613 176.224 525.494 176.421C525.378 176.612 525.225 176.766 525.033 176.881C524.842 176.996 524.628 177.053 524.394 177.053ZM532.456 167.114V168.648H527.093V167.114H532.456ZM528.531 164.761H530.442V174.049C530.442 174.42 530.498 174.699 530.608 174.886C530.719 175.07 530.862 175.195 531.037 175.264C531.216 175.327 531.409 175.359 531.618 175.359C531.772 175.359 531.906 175.349 532.021 175.327C532.136 175.306 532.226 175.289 532.289 175.276L532.635 176.855C532.524 176.898 532.366 176.94 532.162 176.983C531.957 177.03 531.701 177.055 531.395 177.06C530.892 177.068 530.423 176.979 529.988 176.791C529.554 176.604 529.202 176.314 528.934 175.922C528.665 175.53 528.531 175.038 528.531 174.445V164.761ZM538.336 177.13C537.369 177.13 536.535 176.923 535.837 176.51C535.142 176.092 534.605 175.506 534.226 174.752C533.851 173.994 533.663 173.105 533.663 172.087C533.663 171.081 533.851 170.195 534.226 169.428C534.605 168.661 535.133 168.062 535.811 167.631C536.493 167.201 537.29 166.986 538.202 166.986C538.756 166.986 539.293 167.077 539.812 167.261C540.332 167.444 540.799 167.732 541.212 168.124C541.626 168.516 541.952 169.025 542.19 169.651C542.429 170.274 542.548 171.03 542.548 171.921V172.598H534.744V171.166H540.675C540.675 170.663 540.573 170.218 540.369 169.83C540.164 169.438 539.876 169.129 539.506 168.903C539.139 168.678 538.709 168.565 538.214 168.565C537.677 168.565 537.209 168.697 536.808 168.961C536.412 169.221 536.105 169.562 535.888 169.984C535.675 170.401 535.568 170.855 535.568 171.345V172.464C535.568 173.12 535.683 173.678 535.913 174.139C536.148 174.599 536.474 174.95 536.891 175.193C537.309 175.432 537.797 175.551 538.355 175.551C538.717 175.551 539.048 175.5 539.346 175.398C539.644 175.291 539.902 175.134 540.119 174.925C540.337 174.716 540.503 174.458 540.618 174.151L542.427 174.477C542.282 175.01 542.022 175.477 541.647 175.877C541.276 176.274 540.81 176.582 540.247 176.804C539.689 177.021 539.052 177.13 538.336 177.13ZM547.166 177.149C546.544 177.149 545.981 177.034 545.479 176.804C544.976 176.57 544.577 176.231 544.283 175.788C543.993 175.345 543.849 174.801 543.849 174.158C543.849 173.604 543.955 173.148 544.168 172.79C544.381 172.432 544.669 172.149 545.031 171.94C545.393 171.731 545.798 171.573 546.246 171.467C546.693 171.36 547.149 171.279 547.613 171.224C548.202 171.156 548.679 171.1 549.045 171.058C549.412 171.011 549.678 170.936 549.844 170.834C550.01 170.732 550.094 170.565 550.094 170.335V170.291C550.094 169.732 549.936 169.3 549.621 168.993C549.309 168.686 548.845 168.533 548.227 168.533C547.584 168.533 547.077 168.675 546.706 168.961C546.339 169.242 546.086 169.555 545.945 169.901L544.149 169.492C544.362 168.895 544.673 168.413 545.082 168.047C545.496 167.676 545.971 167.408 546.508 167.242C547.045 167.071 547.609 166.986 548.202 166.986C548.594 166.986 549.009 167.033 549.448 167.126C549.891 167.216 550.305 167.382 550.688 167.625C551.076 167.868 551.393 168.215 551.64 168.667C551.888 169.114 552.011 169.696 552.011 170.412V176.932H550.145V175.59H550.068C549.944 175.837 549.759 176.08 549.512 176.318C549.265 176.557 548.947 176.755 548.559 176.913C548.172 177.07 547.707 177.149 547.166 177.149ZM547.582 175.615C548.11 175.615 548.562 175.511 548.937 175.302C549.316 175.093 549.604 174.82 549.8 174.484C550 174.143 550.1 173.778 550.1 173.391V172.125C550.032 172.193 549.9 172.257 549.704 172.317C549.512 172.372 549.292 172.421 549.045 172.464C548.798 172.502 548.557 172.538 548.323 172.573C548.089 172.602 547.893 172.628 547.735 172.649C547.364 172.696 547.025 172.775 546.719 172.886C546.416 172.997 546.173 173.156 545.99 173.365C545.811 173.57 545.721 173.842 545.721 174.183C545.721 174.656 545.896 175.014 546.246 175.257C546.595 175.496 547.04 175.615 547.582 175.615ZM554.197 176.932V167.114H556.031V168.712H556.153C556.357 168.171 556.692 167.749 557.156 167.446C557.621 167.139 558.177 166.986 558.825 166.986C559.481 166.986 560.031 167.139 560.474 167.446C560.921 167.753 561.252 168.175 561.465 168.712H561.567C561.801 168.188 562.174 167.77 562.685 167.459C563.197 167.144 563.806 166.986 564.514 166.986C565.404 166.986 566.131 167.265 566.693 167.823C567.26 168.381 567.543 169.223 567.543 170.348V176.932H565.632V170.527C565.632 169.862 565.451 169.381 565.089 169.082C564.727 168.784 564.294 168.635 563.791 168.635C563.169 168.635 562.685 168.827 562.34 169.21C561.995 169.59 561.823 170.077 561.823 170.674V176.932H559.918V170.406C559.918 169.873 559.752 169.445 559.419 169.121C559.087 168.797 558.654 168.635 558.122 168.635C557.759 168.635 557.425 168.731 557.118 168.923C556.815 169.11 556.57 169.372 556.383 169.709C556.2 170.046 556.108 170.435 556.108 170.879V176.932H554.197Z" fill="#545F71"/>
</g>
</g>
</g>
<rect x="6" y="139.932" width="958" height="521" rx="14" stroke="#545F71" stroke-width="4" shape-rendering="crispEdges"/>
</g>
<defs>
<filter id="filter0_d_124_47" x="0" y="137.932" width="970" height="533" filterUnits="userSpaceOnUse" color-interpolation-filters="sRGB">
<feFlood flood-opacity="0" result="BackgroundImageFix"/>
<feColorMatrix in="SourceAlpha" type="matrix" values="0 0 0 0 0 0 0 0 0 0 0 0 0 0 0 0 0 0 127 0" result="hardAlpha"/>
<feOffset dy="4"/>
<feGaussianBlur stdDeviation="2"/>
<feComposite in2="hardAlpha" operator="out"/>
<feColorMatrix type="matrix" values="0 0 0 0 0 0 0 0 0 0 0 0 0 0 0 0 0 0 0.25 0"/>
<feBlend mode="normal" in2="BackgroundImageFix" result="effect1_dropShadow_124_47"/>
<feBlend mode="normal" in="SourceGraphic" in2="effect1_dropShadow_124_47" result="shape"/>
</filter>
<clipPath id="clip0_124_47">
<rect x="4" y="137.932" width="962" height="525" rx="16" fill="white"/>
</clipPath>
<clipPath id="clip1_124_47">
<rect width="962" height="64" fill="white" transform="translate(4 137.932)"/>
</clipPath>
<clipPath id="clip2_124_47">
<rect x="252" y="151.932" width="466" height="36" rx="10" fill="white"/>
</clipPath>
</defs>
</svg>
